<svg width="108" height="108" viewBox="0 0 108 108" fill="none" xmlns="http://www.w3.org/2000/svg">
<g filter="url(#filter0_d_142_4714)">
<g clip-path="url(#clip0_142_4714)">
<rect x="5.96777" y="6" width="90.355" height="90.355" rx="45.1775" fill="#83AFFB"/>
<g clip-path="url(#clip1_142_4714)">
<path d="M60.8296 26.8165C58.3007 26.8165 55.0994 28.5555 51.1428 28.5555C47.1863 28.5555 43.985 26.8165 41.4577 26.8165C37.095 26.8165 30.3253 30.254 31.8823 39.1824C33.0452 45.8408 38.4113 49.3551 38.4113 54.6339C38.4113 60.1445 36.5444 60.4258 36.3398 67.0766C36.1262 73.9712 39.2057 75.5357 40.2903 75.5357C41.375 75.5357 44.298 75.9795 45.6624 67.8273C47.221 58.5002 51.1428 58.9124 51.1428 58.9124C51.1428 58.9124 55.0663 58.5047 56.6249 67.8273C57.9893 75.9795 60.9138 75.5357 61.997 75.5357C63.0801 75.5357 66.1611 73.9712 65.9474 67.0766C65.7413 60.4258 63.8759 60.1445 63.8759 54.6339C63.8759 49.3551 69.242 45.8408 70.4049 39.1824C71.9634 30.254 65.1892 26.8165 60.8296 26.8165Z" stroke="white" stroke-width="2.18601" stroke-linecap="round" stroke-linejoin="round"/>
<path d="M42.457 46.2334C42.1246 45.6767 41.7876 45.1382 41.4566 44.6116C40.1508 42.5311 39.024 40.7349 38.6494 38.5941C38.3245 36.7332 38.5517 35.3236 39.3249 34.403" stroke="white" stroke-width="2.18601" stroke-linecap="round" stroke-linejoin="round"/>
</g>
<path d="M56.0034 5.99998C56.0034 12.5069 54.7217 18.9501 52.2317 24.9618C49.7416 30.9734 46.0918 36.4357 41.4907 41.0368C36.8896 45.6379 31.4273 49.2877 25.4156 51.7778C19.404 54.2679 12.9608 55.5495 6.45384 55.5495L6.45384 5.99998H56.0034Z" fill="white" fill-opacity="0.2"/>
</g>
</g>
<defs>
<filter id="filter0_d_142_4714" x="0.867085" y="0.899312" width="106.386" height="106.386" filterUnits="userSpaceOnUse" color-interpolation-filters="sRGB">
<feFlood flood-opacity="0" result="BackgroundImageFix"/>
<feColorMatrix in="SourceAlpha" type="matrix" values="0 0 0 0 0 0 0 0 0 0 0 0 0 0 0 0 0 0 127 0" result="hardAlpha"/>
<feOffset dx="2.91468" dy="2.91468"/>
<feGaussianBlur stdDeviation="4.00768"/>
<feComposite in2="hardAlpha" operator="out"/>
<feColorMatrix type="matrix" values="0 0 0 0 0 0 0 0 0 0 0 0 0 0 0 0 0 0 0.15 0"/>
<feBlend mode="normal" in2="BackgroundImageFix" result="effect1_dropShadow_142_4714"/>
<feBlend mode="normal" in="SourceGraphic" in2="effect1_dropShadow_142_4714" result="shape"/>
</filter>
<clipPath id="clip0_142_4714">
<rect x="5.96777" y="6" width="90.355" height="90.355" rx="45.1775" fill="white"/>
</clipPath>
<clipPath id="clip1_142_4714">
<rect width="40.5986" height="50.344" fill="white" transform="translate(30.8457 26.0056)"/>
</clipPath>
</defs>
</svg>
