<svg width="107" height="108" viewBox="0 0 107 108" fill="none" xmlns="http://www.w3.org/2000/svg">
<g filter="url(#filter0_d_142_4759)">
<g clip-path="url(#clip0_142_4759)">
<rect x="5.32227" y="6" width="90.355" height="90.355" rx="45.1775" fill="#ACA1CD"/>
<g clip-path="url(#clip1_142_4759)">
<path d="M34.7742 34.3954L35.0599 32.687C35.4605 31.0331 36.4051 29.5618 37.7422 28.5091C39.0792 27.4564 40.7312 26.8834 42.4329 26.882C43.7899 26.882 45.0913 27.4211 46.0509 28.3807C47.0105 29.3402 47.5496 30.6417 47.5496 31.9987V69.4664C47.5496 72.6156 44.3838 75.4744 41.2362 75.4744C36.1657 75.4744 32.4751 72.1105 32.4751 66.799C29.7995 64.749 27.9988 61.2978 28.8438 58.0346L29.2284 56.559L29.0402 56.4121C24.6564 52.9888 24.8461 47.5255 29.4165 44.363" stroke="white" stroke-width="2.18601" stroke-linecap="round" stroke-linejoin="round"/>
<path d="M40.8121 37.3284C38.3759 33.9943 34.5928 33.3489 30.752 36.008C28.8126 37.5727 27.4063 40.6493 29.4166 44.3598C29.4166 44.3598 33.9128 42.1018 36.963 47.0733" stroke="white" stroke-width="2.18601" stroke-linecap="round" stroke-linejoin="round"/>
<path d="M32.4717 66.799C32.4717 66.799 33.056 63.9336 37.321 63.0886" stroke="white" stroke-width="2.18601" stroke-linecap="round" stroke-linejoin="round"/>
<path d="M39.4761 65.3432C39.9514 65.5082 35.7623 63.8115 37.6918 60.1769" stroke="white" stroke-width="2.18601" stroke-linecap="round" stroke-linejoin="round"/>
<path d="M47.5465 52.8568C47.5465 52.8568 44.3395 51.1848 41.5566 53.9148" stroke="white" stroke-width="2.18601" stroke-linecap="round" stroke-linejoin="round"/>
<path d="M29.2275 56.5591C29.2275 56.5591 30.4836 53.6442 34.9302 54.8194" stroke="white" stroke-width="2.18601" stroke-linecap="round" stroke-linejoin="round"/>
<path d="M66.3017 34.2072L65.9419 32.687C65.5412 31.0331 64.5966 29.5618 63.2596 28.5091C61.9225 27.4564 60.2706 26.8834 58.5689 26.882C57.2118 26.882 55.9104 27.4211 54.9508 28.3807C53.9912 29.3402 53.4521 30.6417 53.4521 31.9987V69.4664C53.4519 70.2151 53.5992 70.9565 53.8857 71.6483C54.1721 72.3401 54.5921 72.9686 55.1215 73.4981C55.6509 74.0275 56.2795 74.4474 56.9713 74.7338C57.663 75.0203 58.4044 75.1676 59.1532 75.1674C65.5491 75.1674 67.68 72.2971 69.1407 68.0271C72.4286 66.1719 73.0046 62.5258 72.1546 59.2626L71.7717 57.7887L71.9598 57.6401C72.9792 56.844 73.7972 55.8194 74.3477 54.649C74.8983 53.4787 75.1661 52.1953 75.1295 50.9024C75.0929 49.6095 74.7528 48.3433 74.1369 47.2059C73.5209 46.0686 72.6463 45.0919 71.5835 44.3548" stroke="white" stroke-width="2.18601" stroke-linecap="round" stroke-linejoin="round"/>
<path d="M60.8242 37.7525C63.2736 33.461 67.0848 33.6063 70.2489 36.0029C72.629 37.8582 73.0549 42.1974 71.5859 44.3547C71.5859 44.3547 65.0101 43.0343 61.534 46.4674" stroke="white" stroke-width="2.18601" stroke-linecap="round" stroke-linejoin="round"/>
<path d="M61.8761 49.3478C61.8761 49.3478 62.9209 45.6803 58.9199 45.3156" stroke="white" stroke-width="2.18601" stroke-linecap="round" stroke-linejoin="round"/>
<path d="M69.1446 68.0271C69.1446 68.0271 68.5603 65.1617 64.2969 64.3167" stroke="white" stroke-width="2.18601" stroke-linecap="round" stroke-linejoin="round"/>
<path d="M62.1443 66.5713C61.669 66.7363 65.8581 65.0396 63.9286 61.405" stroke="white" stroke-width="2.18601" stroke-linecap="round" stroke-linejoin="round"/>
<path d="M71.7737 57.7887C70.1664 56.4973 68.1238 55.8738 66.0693 56.0474" stroke="white" stroke-width="2.18601" stroke-linecap="round" stroke-linejoin="round"/>
<path d="M53.4551 57.7886C54.7752 57.7458 56.078 58.0993 57.1953 58.8037" stroke="white" stroke-width="2.18601" stroke-linecap="round" stroke-linejoin="round"/>
</g>
<path d="M53.9008 6.00002C53.9008 12.507 52.6192 18.9502 50.1291 24.9618C47.639 30.9734 43.9892 36.4357 39.3881 41.0368C34.787 45.6379 29.3247 49.2877 23.3131 51.7778C17.3015 54.2679 10.8582 55.5496 4.3513 55.5496L4.3513 6.00002H53.9008Z" fill="white" fill-opacity="0.2"/>
</g>
</g>
<defs>
<filter id="filter0_d_142_4759" x="0.221577" y="0.899312" width="106.386" height="106.386" filterUnits="userSpaceOnUse" color-interpolation-filters="sRGB">
<feFlood flood-opacity="0" result="BackgroundImageFix"/>
<feColorMatrix in="SourceAlpha" type="matrix" values="0 0 0 0 0 0 0 0 0 0 0 0 0 0 0 0 0 0 127 0" result="hardAlpha"/>
<feOffset dx="2.91468" dy="2.91468"/>
<feGaussianBlur stdDeviation="4.00768"/>
<feComposite in2="hardAlpha" operator="out"/>
<feColorMatrix type="matrix" values="0 0 0 0 0 0 0 0 0 0 0 0 0 0 0 0 0 0 0.15 0"/>
<feBlend mode="normal" in2="BackgroundImageFix" result="effect1_dropShadow_142_4759"/>
<feBlend mode="normal" in="SourceGraphic" in2="effect1_dropShadow_142_4759" result="shape"/>
</filter>
<clipPath id="clip0_142_4759">
<rect x="5.32227" y="6" width="90.355" height="90.355" rx="45.1775" fill="white"/>
</clipPath>
<clipPath id="clip1_142_4759">
<rect width="51.0847" height="50.4096" fill="white" transform="translate(24.957 25.9727)"/>
</clipPath>
</defs>
</svg>
