<svg width="107" height="108" viewBox="0 0 107 108" fill="none" xmlns="http://www.w3.org/2000/svg">
<g filter="url(#filter0_d_142_4731)">
<g clip-path="url(#clip0_142_4731)">
<rect x="5.64453" y="6" width="90.355" height="90.355" rx="45.1775" fill="#DC9497"/>
<g clip-path="url(#clip1_142_4731)">
<path d="M56.2161 59.7272C56.2461 61.2458 56.615 62.7385 57.2959 64.0962C57.9768 65.4539 58.9525 66.6423 60.1515 67.5746C61.4122 68.5571 63.0664 69.4111 65.2256 69.8624C72.9011 71.489 76.7775 71.1309 76.7697 62.8599C76.7697 57.1705 75.6231 36.6668 62.3305 34.8866C56.8038 34.1454 55.7504 38.6253 55.8068 41.1702L56.2161 59.7272Z" stroke="white" stroke-width="2.18601" stroke-linecap="round" stroke-linejoin="round"/>
<path d="M45.4299 59.7272C45.4003 61.2452 45.0322 62.7374 44.3525 64.095C43.6727 65.4526 42.6986 66.6414 41.501 67.5746C40.239 68.5571 38.5861 69.4111 36.4269 69.8624C28.7501 71.489 24.8736 71.1309 24.8828 62.8599C24.8828 57.1705 26.0294 36.6668 39.322 34.8866C44.8487 34.1454 45.9021 38.6253 45.8457 41.1702L45.4299 59.7272Z" stroke="white" stroke-width="2.18601" stroke-linecap="round" stroke-linejoin="round"/>
<path d="M52.4199 31.7239V41.4445C52.4199 43.096 53.4025 44.644 55.0436 45.5846L55.6654 45.9401" stroke="white" stroke-width="2.18601" stroke-linecap="round" stroke-linejoin="round"/>
<path d="M49.224 31.7239V41.4445C49.224 43.096 48.2414 44.644 46.6003 45.5846L45.9785 45.9401" stroke="white" stroke-width="2.18601" stroke-linecap="round" stroke-linejoin="round"/>
<path d="M50.8241 47.269C49.0151 48.8931 45.9336 49.789 45.9336 49.789" stroke="white" stroke-width="2.18601" stroke-linecap="round" stroke-linejoin="round"/>
<path d="M50.8223 47.269C52.63 48.8931 55.7114 49.789 55.7114 49.789" stroke="white" stroke-width="2.18601" stroke-linecap="round" stroke-linejoin="round"/>
</g>
<path d="M55.1938 5.99995C55.1938 12.5069 53.9122 18.9501 51.4221 24.9617C48.932 30.9734 45.2822 36.4357 40.6811 41.0368C36.08 45.6379 30.6177 49.2877 24.6061 51.7778C18.5944 54.2679 12.1512 55.5495 5.64427 55.5495L5.64427 5.99995H55.1938Z" fill="white" fill-opacity="0.2"/>
</g>
</g>
<defs>
<filter id="filter0_d_142_4731" x="0.543843" y="0.899312" width="106.386" height="106.386" filterUnits="userSpaceOnUse" color-interpolation-filters="sRGB">
<feFlood flood-opacity="0" result="BackgroundImageFix"/>
<feColorMatrix in="SourceAlpha" type="matrix" values="0 0 0 0 0 0 0 0 0 0 0 0 0 0 0 0 0 0 127 0" result="hardAlpha"/>
<feOffset dx="2.91468" dy="2.91468"/>
<feGaussianBlur stdDeviation="4.00768"/>
<feComposite in2="hardAlpha" operator="out"/>
<feColorMatrix type="matrix" values="0 0 0 0 0 0 0 0 0 0 0 0 0 0 0 0 0 0 0.15 0"/>
<feBlend mode="normal" in2="BackgroundImageFix" result="effect1_dropShadow_142_4731"/>
<feBlend mode="normal" in="SourceGraphic" in2="effect1_dropShadow_142_4731" result="shape"/>
</filter>
<clipPath id="clip0_142_4731">
<rect x="5.64453" y="6" width="90.355" height="90.355" rx="45.1775" fill="white"/>
</clipPath>
<clipPath id="clip1_142_4731">
<rect width="53.3386" height="40.3529" fill="white" transform="translate(24.1533 31.001)"/>
</clipPath>
</defs>
</svg>
