<svg width="107" height="108" viewBox="0 0 107 108" fill="none" xmlns="http://www.w3.org/2000/svg">
<g filter="url(#filter0_d_142_4743)">
<g clip-path="url(#clip0_142_4743)">
<rect x="5.67773" y="6" width="90.355" height="90.355" rx="45.1775" fill="#F5AD7E"/>
<path d="M55.228 5.99998C55.228 12.5069 53.9464 18.9501 51.4563 24.9618C48.9662 30.9734 45.3164 36.4357 40.7153 41.0368C36.1142 45.6379 30.6519 49.2877 24.6402 51.7778C18.6286 54.2679 12.1854 55.5495 5.67845 55.5495L5.67845 5.99998H55.228Z" fill="white" fill-opacity="0.2"/>
<g clip-path="url(#clip1_142_4743)">
<path d="M38.1687 51.5336C34.6301 46.8117 31.4775 42.2829 31.4775 35.875C31.4775 31.4878 35.1689 29.9532 37.5007 29.4213" stroke="white" stroke-width="2.18601" stroke-linecap="round" stroke-linejoin="round"/>
<path d="M41.1882 29.1436C41.1882 30.0546 40.3716 30.792 39.362 30.792C38.4801 30.792 37.744 30.2268 37.5732 29.4755C37.5492 29.3665 37.5371 29.2552 37.5371 29.1436C37.5371 28.2325 38.3537 27.4951 39.362 27.4951C40.3702 27.4951 41.1882 28.2325 41.1882 29.1436Z" stroke="white" stroke-width="2.18601" stroke-linecap="round" stroke-linejoin="round"/>
<path d="M54.498 29.1436C54.498 30.0546 55.3147 30.792 56.3229 30.792C57.2062 30.792 57.9423 30.2268 58.1131 29.4755C58.1371 29.3665 58.1492 29.2552 58.1492 29.1436C58.1492 28.2325 57.3326 27.4951 56.3229 27.4951C55.3133 27.4951 54.498 28.2325 54.498 29.1436Z" stroke="white" stroke-width="2.18601" stroke-linecap="round" stroke-linejoin="round"/>
<path d="M57.5195 51.5352C61.0568 46.8133 64.2107 42.2844 64.2107 35.8752C64.2107 31.506 60.5499 29.9659 58.2167 29.427" stroke="white" stroke-width="2.18601" stroke-linecap="round" stroke-linejoin="round"/>
<path d="M31.4775 35.875C31.4775 31.4878 35.1689 29.9532 37.5007 29.4213" stroke="white" stroke-width="2.18601" stroke-linecap="round" stroke-linejoin="round"/>
<path d="M57.5489 51.5572C57.1495 51.2321 56.6373 51.0787 56.1249 51.1307C55.6125 51.1828 55.1416 51.4361 54.8158 51.835C52.705 54.4158 50.3722 56.8067 47.844 58.9803C45.3157 56.8064 42.9824 54.4156 40.8709 51.835C40.7151 51.6227 40.5177 51.4444 40.2909 51.3107C40.0641 51.177 39.8125 51.0907 39.5513 51.0572C39.2901 51.0237 39.0249 51.0435 38.7716 51.1156C38.5184 51.1876 38.2824 51.3104 38.078 51.4764C37.8736 51.6423 37.7051 51.8481 37.5826 52.0812C37.4601 52.3143 37.3862 52.5698 37.3654 52.8323C37.3447 53.0948 37.3774 53.3587 37.4617 53.6082C37.546 53.8576 37.6801 54.0873 37.8558 54.2834C42.1416 59.5608 46.4816 62.8939 46.6649 63.0328L46.6885 63.0481C46.762 63.1023 46.839 63.1515 46.9191 63.1953L46.9371 63.2064C47.1117 63.2976 47.299 63.3622 47.4927 63.3981L47.5496 63.4078C47.6443 63.4226 47.7399 63.4305 47.8357 63.4314H47.8426C47.9389 63.4305 48.035 63.4226 48.1301 63.4078L48.1871 63.3981C48.3807 63.3622 48.568 63.2976 48.7426 63.2064L48.7606 63.1953C48.8407 63.1515 48.9177 63.1023 48.9912 63.0481L49.0148 63.0328C52.2558 60.44 55.2091 57.5067 57.8239 54.2834C58.1472 53.8847 58.2997 53.3743 58.2482 52.8636C58.1967 52.3529 57.9453 51.8833 57.5489 51.5572Z" stroke="white" stroke-width="2.18601" stroke-linecap="round" stroke-linejoin="round"/>
<path d="M65.5439 66.1076C65.5439 66.1076 64.4245 74.857 56.9334 74.857C50.0533 74.857 48.2062 69.6796 47.9062 63.4412" stroke="white" stroke-width="2.18601" stroke-linecap="round" stroke-linejoin="round"/>
<path d="M70.2345 62.483C70.2345 64.4606 68.568 66.0633 66.4973 66.0633C64.4266 66.0633 62.7656 64.4662 62.7656 62.483C62.7656 60.4998 64.4391 58.9026 66.5029 58.9026C68.5666 58.9026 70.2345 60.5053 70.2345 62.483Z" stroke="white" stroke-width="2.18601" stroke-linecap="round" stroke-linejoin="round"/>
<path d="M66.9858 62.483C66.9899 62.5811 66.9646 62.6782 66.9131 62.7618C66.8616 62.8453 66.7863 62.9116 66.6968 62.952C66.6074 62.9924 66.5078 63.005 66.4111 62.9884C66.3144 62.9717 66.2248 62.9265 66.154 62.8585C66.0832 62.7905 66.0344 62.7029 66.0138 62.6069C65.9933 62.5109 66.0019 62.4109 66.0386 62.3199C66.0754 62.2289 66.1385 62.1509 66.2199 62.0961C66.3014 62.0413 66.3973 62.0121 66.4955 62.0122C66.5586 62.011 66.6214 62.0221 66.6802 62.0451C66.7389 62.068 66.7926 62.1024 66.8382 62.1461C66.8837 62.1898 66.9202 62.2421 66.9455 62.2999C66.9708 62.3577 66.9845 62.4199 66.9858 62.483Z" stroke="white" stroke-width="2.18601" stroke-linecap="round" stroke-linejoin="round"/>
</g>
</g>
</g>
<defs>
<filter id="filter0_d_142_4743" x="0.577046" y="0.899312" width="106.386" height="106.386" filterUnits="userSpaceOnUse" color-interpolation-filters="sRGB">
<feFlood flood-opacity="0" result="BackgroundImageFix"/>
<feColorMatrix in="SourceAlpha" type="matrix" values="0 0 0 0 0 0 0 0 0 0 0 0 0 0 0 0 0 0 127 0" result="hardAlpha"/>
<feOffset dx="2.91468" dy="2.91468"/>
<feGaussianBlur stdDeviation="4.00768"/>
<feComposite in2="hardAlpha" operator="out"/>
<feColorMatrix type="matrix" values="0 0 0 0 0 0 0 0 0 0 0 0 0 0 0 0 0 0 0.15 0"/>
<feBlend mode="normal" in2="BackgroundImageFix" result="effect1_dropShadow_142_4743"/>
<feBlend mode="normal" in="SourceGraphic" in2="effect1_dropShadow_142_4743" result="shape"/>
</filter>
<clipPath id="clip0_142_4743">
<rect x="5.67773" y="6" width="90.355" height="90.355" rx="45.1775" fill="white"/>
</clipPath>
<clipPath id="clip1_142_4743">
<rect width="40.2847" height="48.8952" fill="white" transform="translate(30.7129 26.7299)"/>
</clipPath>
</defs>
</svg>
