<svg width="57" height="58" viewBox="0 0 57 58" fill="none" xmlns="http://www.w3.org/2000/svg">
<g clip-path="url(#clip0_149_9002)">
<path fill-rule="evenodd" clip-rule="evenodd" d="M32.8508 9.66113C30.1281 9.66113 27.517 10.7427 25.5918 12.6679C23.6665 14.5932 22.585 17.2043 22.585 19.927V23.5595H18.9524C18.0802 23.5595 17.373 24.2667 17.373 25.1389V32.0881C17.373 32.9604 18.0802 33.6675 18.9524 33.6675H22.585V45.9865C22.585 46.8588 23.2921 47.5659 24.1643 47.5659H31.1135C31.9858 47.5659 32.6929 46.8588 32.6929 45.9865V33.6675H36.3254C37.0502 33.6675 37.6819 33.1743 37.8576 32.4712L39.5949 25.522C39.7129 25.0501 39.6069 24.5503 39.3076 24.167C39.0083 23.7836 38.5491 23.5595 38.0627 23.5595H32.6929V19.927C32.6929 19.8851 32.7095 19.8449 32.7391 19.8153C32.7688 19.7857 32.8089 19.7691 32.8508 19.7691H38.0627C38.935 19.7691 39.6421 19.062 39.6421 18.1897V11.2405C39.6421 10.3682 38.935 9.66113 38.0627 9.66113H32.8508ZM27.8253 14.9015C29.1582 13.5686 30.9659 12.8199 32.8508 12.8199H36.4834V16.6103H32.8508C31.9712 16.6103 31.1276 16.9598 30.5056 17.5818C29.8836 18.2038 29.5342 19.0474 29.5342 19.927V25.1389C29.5342 26.0112 30.2413 26.7183 31.1135 26.7183H36.0399L35.0923 30.5088H31.1135C30.2413 30.5088 29.5342 31.2159 29.5342 32.0881V44.4072H25.7437V32.0881C25.7437 31.2159 25.0366 30.5088 24.1643 30.5088H20.5318V26.7183H24.1643C25.0366 26.7183 25.7437 26.0112 25.7437 25.1389V19.927C25.7437 18.0421 26.4925 16.2343 27.8253 14.9015Z" fill="black"/>
</g>
<defs>
<clipPath id="clip0_149_9002">
<rect width="37.9048" height="37.9048" fill="white" transform="translate(9.47656 9.66113)"/>
</clipPath>
</defs>
</svg>
