<svg width="57" height="58" viewBox="0 0 57 58" fill="none" xmlns="http://www.w3.org/2000/svg">
<g clip-path="url(#clip0_149_9004)">
<path fill-rule="evenodd" clip-rule="evenodd" d="M27.7152 24.0366C29.3074 23.2104 31.1196 22.9073 32.894 23.1704C34.704 23.4388 36.3796 24.2822 37.6735 25.5761C38.9673 26.8699 39.8107 28.5455 40.0791 30.3555C40.3422 32.1299 40.0391 33.9421 39.213 35.5343C38.3868 37.1265 37.0796 38.4177 35.4773 39.2242C33.875 40.0307 32.0592 40.3114 30.2882 40.0264C28.5172 39.7414 26.8811 38.9053 25.6127 37.6368C24.3443 36.3684 23.5081 34.7324 23.2231 32.9613C22.9381 31.1903 23.2188 29.3745 24.0253 27.7722C24.8318 26.1699 26.123 24.8627 27.7152 24.0366ZM32.4307 26.295C31.3135 26.1293 30.1725 26.3202 29.17 26.8403C28.1675 27.3605 27.3546 28.1835 26.8468 29.1924C26.339 30.2012 26.1623 31.3444 26.3417 32.4595C26.5211 33.5746 27.0476 34.6047 27.8462 35.4033C28.6448 36.2019 29.6749 36.7284 30.79 36.9078C31.9051 37.0872 33.0483 36.9105 34.0572 36.4027C35.066 35.8949 35.889 35.082 36.4092 34.0795C36.9294 33.077 37.1202 31.936 36.9545 30.8188C36.7855 29.6792 36.2545 28.6242 35.4399 27.8096C34.6253 26.995 33.5703 26.464 32.4307 26.295Z" fill="black"/>
<path d="M41.1225 20.5475C40.2503 20.5475 39.5432 21.2546 39.5432 22.1269C39.5432 22.9991 40.2503 23.7062 41.1225 23.7062H41.1383C42.0106 23.7062 42.7177 22.9991 42.7177 22.1269C42.7177 21.2546 42.0106 20.5475 41.1383 20.5475H41.1225Z" fill="black"/>
<path fill-rule="evenodd" clip-rule="evenodd" d="M12.6162 22.9955C12.6162 17.326 17.2122 12.73 22.8817 12.73H40.254C45.9234 12.73 50.5195 17.326 50.5195 22.9955V40.3677C50.5195 46.0372 45.9234 50.6332 40.254 50.6332H22.8817C17.2122 50.6332 12.6162 46.0372 12.6162 40.3677V22.9955ZM22.8817 15.8887C18.9567 15.8887 15.7749 19.0705 15.7749 22.9955V40.3677C15.7749 44.2927 18.9567 47.4745 22.8817 47.4745H40.254C44.1789 47.4745 47.3607 44.2927 47.3607 40.3677V22.9955C47.3607 19.0705 44.1789 15.8887 40.254 15.8887H22.8817Z" fill="black"/>
</g>
<defs>
<clipPath id="clip0_149_9004">
<rect width="37.9048" height="37.9048" fill="white" transform="translate(12.6162 12.73)"/>
</clipPath>
</defs>
</svg>
