<svg width="57" height="58" viewBox="0 0 57 58" fill="none" xmlns="http://www.w3.org/2000/svg">
<g clip-path="url(#clip0_149_9006)">
<path fill-rule="evenodd" clip-rule="evenodd" d="M37.7455 13.063C36.0255 12.6327 34.2149 12.7409 32.5584 13.3732C30.902 14.0054 29.4797 15.1311 28.4838 16.598C27.499 18.0488 26.9783 19.7642 26.9899 21.5167C25.0042 21.3675 23.0616 20.8305 21.274 19.9307C19.0266 18.7995 17.0939 17.1301 15.6479 15.0711C15.3209 14.6055 14.7688 14.3518 14.2025 14.4069C13.6362 14.462 13.1433 14.8174 12.9122 15.3374L12.9085 15.3456C12.9115 15.3389 12.9115 15.3389 12.9115 15.3389L12.9107 15.3409L12.9085 15.3456L12.9026 15.3592L12.8844 15.4017C12.8694 15.4368 12.8491 15.4855 12.8242 15.547C12.7744 15.6699 12.7062 15.8444 12.6265 16.0649C12.4672 16.5055 12.2605 17.133 12.0614 17.9031C11.665 19.4359 11.2879 21.5734 11.3958 23.9474C11.504 26.3282 12.1024 28.9795 13.6875 31.4823C14.8757 33.3585 16.5849 35.0977 18.9589 36.5626C16.5608 37.6674 13.9236 38.1971 11.2595 38.0912C10.5287 38.0621 9.87352 38.5386 9.67602 39.2428C9.47852 39.947 9.79036 40.6947 10.4297 41.0499C17.9736 45.2409 26.439 45.28 33.0628 41.7544C39.725 38.2084 44.3634 31.1406 44.3634 21.5066L44.3634 21.5014C44.3625 21.2451 44.3503 20.9891 44.3269 20.7342C45.8519 19.0421 46.9363 16.9946 47.4773 14.7732C47.633 14.1335 47.3757 13.4643 46.8315 13.0939C46.2873 12.7234 45.5704 12.7294 45.0324 13.1088C43.9135 13.8981 42.6968 14.5362 41.4141 15.0077C40.3712 14.075 39.1132 13.4053 37.7455 13.063ZM14.5512 23.8039C14.4727 22.0771 14.7044 20.4721 14.9945 19.2064C16.4043 20.6419 18.0446 21.8415 19.8539 22.7522C22.5665 24.1176 25.5748 24.7909 28.6107 24.7122C29.4667 24.69 30.1491 23.9896 30.1491 23.1333V21.554L30.149 21.5328C30.1339 20.407 30.4649 19.3037 31.0973 18.3721C31.7297 17.4406 32.6329 16.7257 33.6848 16.3242C34.7367 15.9228 35.8865 15.854 36.9788 16.1273C38.071 16.4006 39.053 17.0027 39.7918 17.8523C40.1995 18.3211 40.8441 18.5073 41.4389 18.3282C41.8048 18.218 42.1668 18.0968 42.5245 17.9649C42.2264 18.3544 41.9005 18.7242 41.5487 19.0712C41.1733 19.4414 41.0074 19.9744 41.1064 20.4922C41.1705 20.8275 41.2034 21.1679 41.2047 21.5092C41.2038 30.0365 37.156 35.9975 31.5787 38.9661C27.4752 41.1502 22.458 41.7593 17.4512 40.4837C19.4634 39.9043 21.3847 39.0083 23.1393 37.8173C23.6138 37.4952 23.8764 36.9413 23.8254 36.3701C23.7744 35.7989 23.4178 35.3002 22.8937 35.0673C19.5927 33.6002 17.5778 31.7214 16.356 29.7923C15.1279 27.8531 14.6404 25.7663 14.5512 23.8039Z" fill="black"/>
</g>
<defs>
<clipPath id="clip0_149_9006">
<rect width="37.9048" height="37.9048" fill="white" transform="translate(9.61719 9.66113)"/>
</clipPath>
</defs>
</svg>
