<svg width="31" height="31" viewBox="0 0 31 31" fill="none" xmlns="http://www.w3.org/2000/svg">
<path d="M16.0982 5.68797L15.4482 5.12797L14.7982 5.68797C14.4482 5.94797 7.44824 12.048 7.44824 17.448C7.44824 19.5697 8.2911 21.6045 9.79139 23.1048C11.2917 24.6051 13.3265 25.448 15.4482 25.448C17.57 25.448 19.6048 24.6051 21.1051 23.1048C22.6054 21.6045 23.4482 19.5697 23.4482 17.448C23.4482 12.048 16.4482 5.94797 16.0982 5.68797ZM17.6782 21.918L16.7882 20.128C17.2864 19.8793 17.7055 19.4969 17.9986 19.0236C18.2918 18.5503 18.4475 18.0047 18.4482 17.448H20.4482C20.4473 18.3768 20.1876 19.287 19.6984 20.0765C19.2091 20.8661 18.5096 21.5037 17.6782 21.918Z" fill="#E20000"/>
<rect width="30.6008" height="30.6008" rx="10" fill="#FF7878" fill-opacity="0.13"/>
</svg>
