<svg width="32" height="31" viewBox="0 0 32 31" fill="none" xmlns="http://www.w3.org/2000/svg">
<rect x="0.415039" y="0.288887" width="30.6008" height="30.6008" rx="10" fill="#E20000" fill-opacity="0.1"/>
<path d="M19.3746 7.32494H12.3908C12.0005 7.32494 11.6719 7.65359 11.6719 8.04386V16.0547C11.6719 16.445 12.0005 16.7736 12.3908 16.7736H19.3746C19.7649 16.7736 20.0935 16.445 20.0935 16.0547V8.04386C20.0935 7.65359 19.7649 7.32494 19.3746 7.32494ZM14.1368 13.3844C14.1368 13.5546 13.9988 13.6925 13.8286 13.6925H12.8016C12.6314 13.6925 12.4935 13.5546 12.4935 13.3844C12.4935 13.2143 12.6314 13.0763 12.8016 13.0763H13.8286C13.9988 13.0763 14.1368 13.2143 14.1368 13.3844ZM16.807 13.3844C16.807 13.5546 16.6691 13.6925 16.4989 13.6925H15.2665C15.0963 13.6925 14.9584 13.5546 14.9584 13.3844C14.9584 13.2143 15.0963 13.0763 15.2665 13.0763H16.4989C16.6691 13.0763 16.807 13.2143 16.807 13.3844ZM19.2719 13.3844C19.2719 13.5546 19.134 13.6925 18.9638 13.6925H17.9368C17.7666 13.6925 17.6287 13.5546 17.6287 13.3844C17.6287 13.2143 17.7666 13.0763 17.9368 13.0763H18.9638C19.134 13.0763 19.2719 13.2143 19.2719 13.3844Z" fill="#E20000"/>
<path d="M20.1963 6.09247H11.5692C10.953 6.09247 10.4395 6.60598 10.4395 7.2222V17.246C10.4395 17.8417 10.6654 18.3963 11.0557 18.8277L12.1032 19.9779L12.1238 19.9985C12.8427 20.779 12.9249 20.8612 13.1097 20.8612C14.0173 20.8612 14.753 21.5969 14.753 22.5044V23.4082C14.753 23.5172 14.7685 23.6257 14.799 23.7303L14.8019 23.7402C14.9433 24.2251 15.3878 24.5585 15.893 24.5585C16.3981 24.5585 16.8427 24.2251 16.9841 23.7402L16.987 23.7303C17.0175 23.6257 17.033 23.5172 17.033 23.4082V22.525C17.033 21.6174 17.7687 20.8817 18.6762 20.8817C18.8611 20.8817 18.9433 20.7996 19.6622 20.019L20.7303 18.8277C21.1206 18.3963 21.3465 17.8212 21.3465 17.246V7.2222C21.326 6.60598 20.8125 6.09247 20.1963 6.09247ZM13.8287 20.2655C13.6585 20.2655 13.5205 20.1276 13.5205 19.9574C13.5205 19.7872 13.6585 19.6493 13.8287 19.6493H14.4449C14.615 19.6493 14.753 19.7872 14.753 19.9574C14.753 20.1276 14.615 20.2655 14.4449 20.2655H13.8287ZM16.2935 22.9358C16.2368 22.9358 16.1908 22.8898 16.1908 22.8331V22.0115C16.1908 21.8413 16.0529 21.7033 15.8827 21.7033C15.7126 21.7033 15.5746 21.8413 15.5746 22.0115V22.8331C15.5746 22.8898 15.5286 22.9358 15.4719 22.9358C15.4152 22.9358 15.3692 22.8898 15.3692 22.8331V20.1628C15.3692 19.8792 15.5991 19.6493 15.8827 19.6493C16.1663 19.6493 16.3962 19.8792 16.3962 20.1628V22.8331C16.3962 22.8898 16.3503 22.9358 16.2935 22.9358ZM15.6453 23.9628C15.5546 23.9628 15.4746 23.9033 15.4485 23.8164C15.409 23.6846 15.5077 23.552 15.6453 23.552H16.0996C16.2372 23.552 16.3359 23.6846 16.2964 23.8164C16.2703 23.9033 16.1903 23.9628 16.0996 23.9628H15.6453ZM17.0125 19.9574C17.0125 19.7872 17.1504 19.6493 17.3206 19.6493H17.9368C18.1069 19.6493 18.2449 19.7872 18.2449 19.9574C18.2449 20.1276 18.1069 20.2655 17.9368 20.2655H17.3206C17.1504 20.2655 17.0125 20.1276 17.0125 19.9574ZM20.7098 17.246C20.7098 17.6774 20.5454 18.0882 20.2579 18.4168L19.2103 19.5671L19.1898 19.5877C19.0764 19.7236 18.8611 19.6342 18.8611 19.4572V19.3206C18.8611 19.1563 18.7173 19.0125 18.553 19.0125H13.2124C13.0481 19.0125 12.9043 19.1563 12.9043 19.3206V19.4572C12.9043 19.6196 12.6905 19.7025 12.5757 19.5877L11.5076 18.4168C11.22 18.0882 11.0557 17.6774 11.0557 17.246V7.2222C11.0557 6.93463 11.2816 6.70869 11.5692 6.70869H20.1963C20.4838 6.70869 20.7098 6.93463 20.7098 7.2222V17.246Z" fill="#E20000"/>
<path d="M13.6115 17.4814C13.3227 17.7702 13.2317 18.1474 13.4082 18.3239C13.5846 18.5003 13.9618 18.4093 14.2506 18.1205C14.5393 17.8317 14.6304 17.4546 14.4539 17.2781C14.2774 17.1016 13.9003 17.1927 13.6115 17.4814Z" fill="#E20000"/>
<path d="M17.3097 17.4813C17.021 17.7701 16.9299 18.1472 17.1064 18.3237C17.2829 18.5002 17.66 18.4091 17.9488 18.1204C18.2376 17.8316 18.3286 17.4544 18.1521 17.278C17.9757 17.1015 17.5985 17.1925 17.3097 17.4813Z" fill="#E20000"/>
<path d="M15.4611 17.4813C15.1723 17.7701 15.0813 18.1472 15.2578 18.3237C15.4342 18.5002 15.8114 18.4091 16.1002 18.1204C16.3889 17.8316 16.48 17.4544 16.3035 17.278C16.127 17.1015 15.7499 17.1925 15.4611 17.4813Z" fill="#E20000"/>
</svg>
