<svg width="93" height="39" viewBox="0 0 93 39" fill="none" xmlns="http://www.w3.org/2000/svg">
<path d="M15.1451 24.8346C9.36672 25.7798 5.29302 24.8225 0.551758 21.4052V38.5522H91.8267V17.1844C86.853 10.9001 86.7803 3.43664 79.0906 1.09253C70.5175 -1.5209 66.6895 8.22029 57.8639 9.79794C47.6406 11.6255 40.9009 3.93694 31.3305 7.95134C22.8896 11.492 24.185 23.3558 15.1451 24.8346Z" fill="url(#paint0_linear_385_693)"/>
<path d="M0.551758 21.4052C5.29302 24.8225 9.36672 25.7798 15.1451 24.8346C24.185 23.3558 22.8896 11.492 31.3305 7.95134C40.9009 3.93694 47.6406 11.6255 57.8639 9.79794C66.6895 8.22029 70.5175 -1.5209 79.0907 1.09253C86.7803 3.43664 86.853 10.9001 91.8267 17.1844" stroke="#478F96" stroke-width="0.527601"/>
<defs>
<linearGradient id="paint0_linear_385_693" x1="46.1892" y1="6.71713" x2="46.5" y2="46.7368" gradientUnits="userSpaceOnUse">
<stop stop-color="#11A88D"/>
<stop offset="0.820935" stop-color="#11A88D" stop-opacity="0.07"/>
</linearGradient>
</defs>
</svg>
