<svg width="92" height="39" viewBox="0 0 92 39" fill="none" xmlns="http://www.w3.org/2000/svg">
<path d="M18.9168 17.3812C11.5776 16.2497 6.69046 17.0808 0.172852 20.5688V38.3732H91.4478V1.17731C85.7191 3.66701 82.7773 5.77194 76.7786 7.5526C67.0917 10.4281 59.7801 5.06446 50.9717 9.94333C43.3013 14.1918 45.3029 25.7381 36.5742 26.9441C28.7691 28.0225 26.7032 18.5816 18.9168 17.3812Z" fill="url(#paint0_linear_385_681)"/>
<path d="M0.172852 20.5688C6.69046 17.0808 11.5776 16.2497 18.9168 17.3812C26.7032 18.5816 28.7691 28.0225 36.5742 26.9441C45.3029 25.7381 43.3013 14.1918 50.9717 9.94333C59.7801 5.06446 67.0917 10.4281 76.7786 7.5526C82.7773 5.77194 85.7191 3.66701 91.4478 1.17731" stroke="#FF3B30" stroke-width="0.527601"/>
<defs>
<linearGradient id="paint0_linear_385_681" x1="45.8103" y1="1.17731" x2="45.8789" y2="63.2368" gradientUnits="userSpaceOnUse">
<stop stop-color="#E81347"/>
<stop offset="0.8" stop-color="#FDE7ED"/>
</linearGradient>
</defs>
</svg>
