<svg width="93" height="39" viewBox="0 0 93 39" fill="none" xmlns="http://www.w3.org/2000/svg">
<path d="M15.3873 24.8346C9.60891 25.7798 5.5352 24.8225 0.793945 21.4052V38.5522H92.0689V17.1844C87.0951 10.9001 87.0225 3.43664 79.3328 1.09253C70.7596 -1.5209 66.9317 8.22029 58.1061 9.79794C47.8827 11.6255 41.1431 3.93694 31.5727 7.95134C23.1318 11.492 24.4272 23.3558 15.3873 24.8346Z" fill="url(#paint0_linear_433_660)"/>
<path d="M0.793945 21.4052C5.5352 24.8225 9.60891 25.7798 15.3873 24.8346C24.4272 23.3558 23.1318 11.492 31.5727 7.95134C41.1431 3.93694 47.8827 11.6255 58.1061 9.79794C66.9317 8.22029 70.7596 -1.5209 79.3328 1.09253C87.0225 3.43664 87.0951 10.9001 92.0689 17.1844" stroke="#005EFF" stroke-width="0.527601"/>
<defs>
<linearGradient id="paint0_linear_433_660" x1="46.4314" y1="0.649719" x2="45.9841" y2="50.2369" gradientUnits="userSpaceOnUse">
<stop stop-color="#407CE2"/>
<stop offset="0.72" stop-color="#DFEBFF"/>
</linearGradient>
</defs>
</svg>
