<svg width="23" height="23" viewBox="0 0 23 23" fill="none" xmlns="http://www.w3.org/2000/svg">
<path d="M15.8254 3.50132C15.0208 3.49994 14.227 3.68632 13.5072 4.04565C12.7873 4.40498 12.1612 4.92734 11.6787 5.57117C11.0252 4.70169 10.1149 4.05974 9.07645 3.73613C8.03804 3.41252 6.92415 3.42366 5.89242 3.76796C4.86068 4.11226 3.96334 4.77229 3.32737 5.65465C2.69139 6.53701 2.349 7.59702 2.34863 8.68469C2.35414 9.50915 2.4981 10.3268 2.77451 11.1036H6.47103L7.64809 9.33801C7.7112 9.24334 7.7967 9.16572 7.89702 9.11203C7.99733 9.05834 8.10935 9.03025 8.22312 9.03025C8.3369 9.03025 8.44891 9.05834 8.54923 9.11203C8.64954 9.16572 8.73504 9.24334 8.79815 9.33801L10.9876 12.6221L11.7948 11.4114C11.8579 11.3167 11.9434 11.2391 12.0437 11.1854C12.144 11.1317 12.256 11.1036 12.3698 11.1036H14.4432C14.6265 11.1036 14.8023 11.1764 14.9319 11.306C15.0615 11.4356 15.1343 11.6114 15.1343 11.7947C15.1343 11.978 15.0615 12.1538 14.9319 12.2834C14.8023 12.413 14.6265 12.4858 14.4432 12.4858H12.7397L11.5626 14.2514C11.4995 14.3461 11.414 14.4237 11.3137 14.4774C11.2134 14.5311 11.1014 14.5592 10.9876 14.5592C10.8738 14.5592 10.7618 14.5311 10.6615 14.4774C10.5612 14.4237 10.4757 14.3461 10.4126 14.2514L8.22312 10.9673L7.41592 12.1781C7.35281 12.2727 7.26731 12.3504 7.167 12.4041C7.06668 12.4577 6.95467 12.4858 6.84089 12.4858H3.38392C5.68627 16.7889 11.0531 19.8387 11.341 20C11.4442 20.0578 11.5604 20.0881 11.6787 20.0881C11.797 20.0881 11.9132 20.0578 12.0164 20C13.6027 19.0709 15.0916 17.9846 16.4605 16.7575C19.4785 14.0413 21.0088 11.3252 21.0088 8.68469C21.0072 7.31045 20.4606 5.99295 19.4889 5.02121C18.5171 4.04948 17.1996 3.50288 15.8254 3.50132Z" fill="#E81347"/>
</svg>
