<svg width="31" height="31" viewBox="0 0 31 31" fill="none" xmlns="http://www.w3.org/2000/svg">
<rect width="30.6008" height="30.6008" rx="10" fill="#E81347" fill-opacity="0.1"/>
<path d="M19.6545 8.21244C18.8499 8.21106 18.0561 8.39744 17.3363 8.75677C16.6164 9.1161 15.9903 9.63846 15.5078 10.2823C14.8543 9.41281 13.944 8.77086 12.9056 8.44725C11.8671 8.12364 10.7533 8.13478 9.72152 8.47908C8.68978 8.82338 7.79244 9.48341 7.15647 10.3658C6.5205 11.2481 6.1781 12.3081 6.17773 13.3958C6.18324 14.2203 6.3272 15.038 6.60361 15.8147H10.3001L11.4772 14.0491C11.5403 13.9545 11.6258 13.8768 11.7261 13.8232C11.8264 13.7695 11.9384 13.7414 12.0522 13.7414C12.166 13.7414 12.278 13.7695 12.3783 13.8232C12.4786 13.8768 12.5641 13.9545 12.6273 14.0491L14.8167 17.3332L15.6239 16.1225C15.687 16.0278 15.7725 15.9502 15.8728 15.8965C15.9731 15.8428 16.0851 15.8147 16.1989 15.8147H18.2723C18.4556 15.8147 18.6314 15.8875 18.761 16.0171C18.8906 16.1468 18.9634 16.3225 18.9634 16.5058C18.9634 16.6891 18.8906 16.8649 18.761 16.9945C18.6314 17.1241 18.4556 17.197 18.2723 17.197H16.5688L15.3917 18.9625C15.3286 19.0572 15.2431 19.1348 15.1428 19.1885C15.0425 19.2422 14.9305 19.2703 14.8167 19.2703C14.7029 19.2703 14.5909 19.2422 14.4906 19.1885C14.3903 19.1348 14.3048 19.0572 14.2417 18.9625L12.0522 15.6784L11.245 16.8892C11.1819 16.9839 11.0964 17.0615 10.9961 17.1152C10.8958 17.1689 10.7838 17.197 10.67 17.197H7.21302C9.51537 21.5 14.8822 24.5498 15.1701 24.7111C15.2733 24.7689 15.3895 24.7992 15.5078 24.7992C15.6261 24.7992 15.7423 24.7689 15.8455 24.7111C17.4318 23.782 18.9207 22.6957 20.2896 21.4686C23.3076 18.7524 24.8379 16.0363 24.8379 13.3958C24.8363 12.0216 24.2897 10.7041 23.318 9.73234C22.3462 8.7606 21.0287 8.214 19.6545 8.21244V8.21244Z" fill="#E81347"/>
</svg>
