<svg width="31" height="31" viewBox="0 0 31 31" fill="none" xmlns="http://www.w3.org/2000/svg">
<rect width="30.6008" height="30.6008" rx="6.33121" fill="#FBF0DC"/>
<g clip-path="url(#clip0_435_6155)">
<path d="M8.87618 7.6849L8.21838 7.80094L8.56438 9.7635C8.36879 9.79396 8.17334 9.82538 7.97806 9.85776L7.73673 8.4888L7.07893 8.60473L7.31977 9.97016C7.10688 10.0077 6.89417 10.0462 6.68164 10.0856L6.8038 10.7423C7.01637 10.7028 7.22674 10.6648 7.4357 10.6279L7.69755 12.113L8.35538 11.9971L8.09413 10.5153C8.29096 10.4826 8.48638 10.4513 8.68039 10.421L9.04321 12.4788L9.70105 12.3628L9.3412 10.3221C9.65599 10.2769 9.96708 10.2353 10.2756 10.1967C10.8523 11.9182 11.5632 13.9074 12.7596 15.186C13.0832 16.3141 13.1255 16.9453 13.9627 18.5039C13.1255 19.914 12.5317 22.289 12.2056 24.4785L10.4243 24.7011V25.2578H13.1255C13.7192 23.4765 15.5005 19.914 15.5005 19.914C15.5005 19.914 17.2817 23.4765 17.8755 25.2578H20.5767V24.7011L18.7954 24.4785C18.4692 22.289 17.8755 19.914 16.9107 18.5039C17.8755 16.9453 17.8078 16.2927 18.2403 15.1871C19.4371 13.9087 20.1484 11.9187 20.7254 10.1968C21.0339 10.2353 21.345 10.2769 21.6598 10.3222L21.3 12.3628L21.9579 12.4788L22.3207 10.421C22.5148 10.4513 22.7101 10.4826 22.907 10.5153L22.6457 11.9971L23.3035 12.113L23.5654 10.6279C23.7743 10.6648 23.9847 10.7028 24.1973 10.7423L24.3194 10.0856C24.1049 10.0458 23.8924 10.0073 23.6813 9.97013L23.9222 8.60465L23.2643 8.48868L23.023 9.85765C22.8262 9.82499 22.6307 9.79356 22.4366 9.76339L22.7827 7.80082L22.1249 7.68478L21.7758 9.66457C19.5819 9.34936 17.5408 9.1909 15.5005 9.1909C13.4602 9.1909 11.4191 9.34936 9.22523 9.66468L8.87618 7.6849ZM15.5005 9.85665C16.819 9.85665 18.1379 9.92456 19.5017 10.0594C18.9791 11.3529 18.0747 12.7871 17.1563 13.8433C16.7731 14.3948 16.1815 14.7558 15.5005 14.7558C14.8195 14.7558 14.2279 14.3948 13.8447 13.8433C12.9263 12.7871 12.0219 11.3529 11.4993 10.0594C12.8631 9.92456 14.1819 9.85665 15.5005 9.85665ZM15.5005 10.5996C14.7273 10.5996 14.0532 11.3507 14.0532 12.3437C14.0532 13.3368 14.7273 14.0879 15.5005 14.0879C16.2737 14.0879 16.9478 13.3368 16.9478 12.3437C16.9478 11.3507 16.2737 10.5996 15.5005 10.5996Z" fill="#FEB052"/>
</g>
<defs>
<clipPath id="clip0_435_6155">
<rect width="19" height="19" fill="white" transform="translate(6 7)"/>
</clipPath>
</defs>
</svg>
