<svg width="92" height="39" viewBox="0 0 92 39" fill="none" xmlns="http://www.w3.org/2000/svg">
<path d="M14.9029 24.8346C9.12454 25.7798 5.05083 24.8225 0.30957 21.4052V38.5522H91.5845V17.1844C86.6108 10.9001 86.5382 3.43664 78.8485 1.09253C70.2753 -1.5209 66.4473 8.22029 57.6217 9.79794C47.3984 11.6255 40.6587 3.93694 31.0883 7.95134C22.6474 11.492 23.9428 23.3558 14.9029 24.8346Z" fill="url(#paint0_linear_385_727)"/>
<path d="M0.30957 21.4052C5.05083 24.8225 9.12454 25.7798 14.9029 24.8346C23.9428 23.3558 22.6474 11.492 31.0883 7.95134C40.6587 3.93694 47.3984 11.6255 57.6217 9.79794C66.4473 8.22029 70.2753 -1.5209 78.8485 1.09253C86.5382 3.43664 86.6108 10.9001 91.5845 17.1844" stroke="#F2F2F2" stroke-width="0.527601"/>
<defs>
<linearGradient id="paint0_linear_385_727" x1="45.947" y1="6.71713" x2="45.947" y2="38.5522" gradientUnits="userSpaceOnUse">
<stop stop-color="#FEB052"/>
<stop offset="1" stop-color="#FFE6B7" stop-opacity="0.28"/>
</linearGradient>
</defs>
</svg>
